<svg width="500" height="500" version="1.1" xmlns="http://www.w3.org/2000/svg" desc="Created with imagetracer.js version 1.2.6" ><path fill="rgb(47,27,86)" stroke="rgb(47,27,86)" stroke-width="1" opacity="1" d="M 115.5 62 L 116 454.5 L 115 454.5 L 115.5 62 Z " /><path fill="rgb(47,27,86)" stroke="rgb(47,27,86)" stroke-width="1" opacity="1" d="M 273.5 62 L 279 62.5 L 273.5 63 L 273.5 62 Z " /><path fill="rgb(47,27,86)" stroke="rgb(47,27,86)" stroke-width="1" opacity="1" d="M 287.5 63 L 290 63.5 L 287.5 64 L 287.5 63 Z " /><path fill="rgb(47,27,86)" stroke="rgb(47,27,86)" stroke-width="1" opacity="1" d="M 295.5 64 L 298 64.5 L 295.5 65 L 295.5 64 Z " /><path fill="rgb(47,27,86)" stroke="rgb(47,27,86)" stroke-width="1" opacity="1" d="M 355.5 85 L 356.5 87 L 355.5 85 Z " /><path fill="rgb(47,27,86)" stroke="rgb(47,27,86)" stroke-width="1" opacity="1" d="M 359.5 88 L 360.5 90 L 359.5 88 Z " /><path fill="rgb(47,27,86)" stroke="rgb(47,27,86)" stroke-width="1" opacity="1" d="M 371.5 100 L 372.5 102 L 371.5 100 Z " /><path fill="rgb(47,27,86)" stroke="rgb(47,27,86)" stroke-width="1" opacity="1" d="M 261.5 104 L 267 104.5 L 261.5 105 L 261.5 104 Z " /><path fill="rgb(47,27,86)" stroke="rgb(47,27,86)" stroke-width="1" opacity="1" d="M 275.5 105 L 278 105.5 L 275.5 106 L 275.5 105 Z " /><path fill="rgb(47,27,86)" stroke="rgb(47,27,86)" stroke-width="1" opacity="1" d="M 322.5 121 L 323.5 123 L 322.5 121 Z " /><path fill="rgb(47,27,86)" stroke="rgb(47,27,86)" stroke-width="1" opacity="1" d="M 332.5 131 L 333.5 133 L 332.5 131 Z " /><path fill="rgb(47,27,86)" stroke="rgb(47,27,86)" stroke-width="1" opacity="1" d="M 390.5 151 L 391 156.5 L 390 156.5 L 390.5 151 Z " /><path fill="rgb(47,27,86)" stroke="rgb(47,27,86)" stroke-width="1" opacity="1" d="M 343.5 160 L 344 164.5 L 343 164.5 L 343.5 160 Z " /><path fill="rgb(47,27,86)" stroke="rgb(47,27,86)" stroke-width="1" opacity="1" d="M 390.5 171 L 391 173.5 L 390 173.5 L 390.5 171 Z " /><path fill="rgb(47,27,86)" stroke="rgb(47,27,86)" stroke-width="1" opacity="1" d="M 343.5 172 L 344 174.5 L 343 174.5 L 343.5 172 Z " /><path fill="rgb(47,27,86)" stroke="rgb(47,27,86)" stroke-width="1" opacity="1" d="M 332.5 200 L 331.5 202 L 332.5 200 Z " /><path fill="rgb(47,27,86)" stroke="rgb(47,27,86)" stroke-width="1" opacity="1" d="M 322.5 210 L 320.5 213 L 322.5 210 Z " /><path fill="rgb(47,27,86)" stroke="rgb(47,27,86)" stroke-width="1" opacity="1" d="M 375.5 213 L 374.5 215 L 375.5 213 Z " /><path fill="rgb(47,27,86)" stroke="rgb(47,27,86)" stroke-width="1" opacity="1" d="M 317.5 214 L 316.5 216 L 317.5 214 Z " /><path fill="rgb(47,27,86)" stroke="rgb(47,27,86)" stroke-width="1" opacity="1" d="M 372.5 217 L 371.5 219 L 372.5 217 Z " /><path fill="rgb(47,27,86)" stroke="rgb(47,27,86)" stroke-width="1" opacity="1" d="M 368.5 222 L 359.5 232 L 368.5 222 Z " /><path fill="rgb(47,27,86)" stroke="rgb(47,27,86)" stroke-width="1" opacity="1" d="M 268.5 232 L 271 232.5 L 268.5 233 L 268.5 232 Z " /><path fill="rgb(47,27,86)" stroke="rgb(47,27,86)" stroke-width="1" opacity="1" d="M 163.5 233 L 259 233.5 L 163.5 234 L 163.5 233 Z " /><path fill="rgb(47,27,86)" stroke="rgb(47,27,86)" stroke-width="1" opacity="1" d="M 355.5 234 L 354.5 236 L 355.5 234 Z " /><path fill="rgb(47,27,86)" stroke="rgb(47,27,86)" stroke-width="1" opacity="1" d="M 351.5 237 L 350.5 239 L 351.5 237 Z " /><path fill="rgb(47,27,86)" stroke="rgb(47,27,86)" stroke-width="1" opacity="1" d="M 323.5 252 L 324.5 254 L 323.5 252 Z " /><path fill="rgb(47,27,86)" stroke="rgb(47,27,86)" stroke-width="1" opacity="1" d="M 371.5 273 L 372.5 275 L 371.5 273 Z " /><path fill="rgb(47,27,86)" stroke="rgb(47,27,86)" stroke-width="1" opacity="1" d="M 163.5 275 L 268 275.5 L 163.5 276 L 163.5 275 Z " /><path fill="rgb(47,27,86)" stroke="rgb(47,27,86)" stroke-width="1" opacity="1" d="M 279.5 276 L 283 276.5 L 279.5 277 L 279.5 276 Z " /><path fill="rgb(47,27,86)" stroke="rgb(47,27,86)" stroke-width="1" opacity="1" d="M 375.5 276 L 377.5 279 L 375.5 276 Z " /><path fill="rgb(47,27,86)" stroke="rgb(47,27,86)" stroke-width="1" opacity="1" d="M 288.5 277 L 291 277.5 L 288.5 278 L 288.5 277 Z " /><path fill="rgb(47,27,86)" stroke="rgb(47,27,86)" stroke-width="1" opacity="1" d="M 379.5 280 L 384.5 286 L 379.5 280 Z " /><path fill="rgb(47,27,86)" stroke="rgb(47,27,86)" stroke-width="1" opacity="1" d="M 390.5 293 L 391.5 295 L 390.5 293 Z " /><path fill="rgb(47,27,86)" stroke="rgb(47,27,86)" stroke-width="1" opacity="1" d="M 341.5 298 L 342.5 300 L 341.5 298 Z " /><path fill="rgb(47,27,86)" stroke="rgb(47,27,86)" stroke-width="1" opacity="1" d="M 346.5 304 L 347.5 306 L 346.5 304 Z " /><path fill="rgb(47,27,86)" stroke="rgb(47,27,86)" stroke-width="1" opacity="1" d="M 358.5 337 L 359 340.5 L 358 340.5 L 358.5 337 Z " /><path fill="rgb(47,27,86)" stroke="rgb(47,27,86)" stroke-width="1" opacity="1" d="M 405.5 337 L 406 342.5 L 405 342.5 L 405.5 337 Z " /><path fill="rgb(47,27,86)" stroke="rgb(47,27,86)" stroke-width="1" opacity="1" d="M 358.5 346 L 359 351.5 L 358 351.5 L 358.5 346 Z " /><path fill="rgb(47,27,86)" stroke="rgb(47,27,86)" stroke-width="1" opacity="1" d="M 405.5 354 L 406 358.5 L 405 358.5 L 405.5 354 Z " /><path fill="rgb(47,27,86)" stroke="rgb(47,27,86)" stroke-width="1" opacity="1" d="M 335.5 393 L 334.5 395 L 335.5 393 Z " /><path fill="rgb(47,27,86)" stroke="rgb(47,27,86)" stroke-width="1" opacity="1" d="M 388.5 409 L 387.5 411 L 388.5 409 Z " /><path fill="rgb(47,27,86)" stroke="rgb(47,27,86)" stroke-width="1" opacity="1" d="M 280.5 412 L 283 412.5 L 280.5 413 L 280.5 412 Z " /><path fill="rgb(47,27,86)" stroke="rgb(47,27,86)" stroke-width="1" opacity="1" d="M 163.5 413 L 273 413.5 L 163.5 414 L 163.5 413 Z " /><path fill="rgb(47,27,86)" stroke="rgb(47,27,86)" stroke-width="1" opacity="1" d="M 385.5 413 L 384.5 415 L 385.5 413 Z " /><path fill="rgb(47,27,86)" stroke="rgb(47,27,86)" stroke-width="1" opacity="1" d="M 372.5 426 L 371.5 428 L 372.5 426 Z " /><path fill="rgb(47,27,86)" stroke="rgb(47,27,86)" stroke-width="1" opacity="1" d="M 297.5 453 L 300 453.5 L 297.5 454 L 297.5 453 Z " /><path fill="rgb(47,27,86)" stroke="rgb(47,27,86)" stroke-width="1" opacity="1" d="M 282.5 454 L 287 454.5 L 282.5 455 L 282.5 454 Z " /><path fill="rgb(100,58,183)" stroke="rgb(100,58,183)" stroke-width="1" opacity="1" d="M 115.5 61 L 268 61.5 L 115.5 62 L 115.5 61 Z " /><path fill="rgb(100,58,183)" stroke="rgb(100,58,183)" stroke-width="1" opacity="1" d="M 279.5 62 L 284 62.5 L 279.5 63 L 279.5 62 Z " /><path fill="rgb(100,58,183)" stroke="rgb(100,58,183)" stroke-width="1" opacity="1" d="M 290.5 63 L 293 63.5 L 290.5 64 L 290.5 63 Z " /><path fill="rgb(100,58,183)" stroke="rgb(100,58,183)" stroke-width="1" opacity="1" d="M 363.5 91 L 369.5 98 L 363.5 91 Z " /><path fill="rgb(100,58,183)" stroke="rgb(100,58,183)" stroke-width="1" opacity="1" d="M 373.5 102 L 374.5 104 L 373.5 102 Z " /><path fill="rgb(100,58,183)" stroke="rgb(100,58,183)" stroke-width="1" opacity="1" d="M 164.5 104 L 261 104.5 L 164 105 L 163.5 233 L 163 105.5 L 164.5 104 Z " /><path fill="rgb(100,58,183)" stroke="rgb(100,58,183)" stroke-width="1" opacity="1" d="M 271.5 105 L 275 105.5 L 271.5 106 L 271.5 105 Z " /><path fill="rgb(100,58,183)" stroke="rgb(100,58,183)" stroke-width="1" opacity="1" d="M 280.5 106 L 283 106.5 L 280.5 107 L 280.5 106 Z " /><path fill="rgb(100,58,183)" stroke="rgb(100,58,183)" stroke-width="1" opacity="1" d="M 324.5 123 L 331.5 131 L 324.5 123 Z " /><path fill="rgb(100,58,183)" stroke="rgb(100,58,183)" stroke-width="1" opacity="1" d="M 390.5 148 L 391 150.5 L 390 150.5 L 390.5 148 Z " /><path fill="rgb(100,58,183)" stroke="rgb(100,58,183)" stroke-width="1" opacity="1" d="M 342.5 155 L 343 157.5 L 342 157.5 L 342.5 155 Z " /><path fill="rgb(100,58,183)" stroke="rgb(100,58,183)" stroke-width="1" opacity="1" d="M 343.5 165 L 344 171.5 L 343 171.5 L 343.5 165 Z " /><path fill="rgb(100,58,183)" stroke="rgb(100,58,183)" stroke-width="1" opacity="1" d="M 390.5 174 L 391 176.5 L 390 176.5 L 390.5 174 Z " /><path fill="rgb(100,58,183)" stroke="rgb(100,58,183)" stroke-width="1" opacity="1" d="M 330.5 202 L 323.5 210 L 330.5 202 Z " /><path fill="rgb(100,58,183)" stroke="rgb(100,58,183)" stroke-width="1" opacity="1" d="M 370.5 220 L 369.5 222 L 370.5 220 Z " /><path fill="rgb(100,58,183)" stroke="rgb(100,58,183)" stroke-width="1" opacity="1" d="M 264.5 232 L 268 232.5 L 264.5 233 L 264.5 232 Z " /><path fill="rgb(100,58,183)" stroke="rgb(100,58,183)" stroke-width="1" opacity="1" d="M 358.5 232 L 357.5 234 L 358.5 232 Z " /><path fill="rgb(100,58,183)" stroke="rgb(100,58,183)" stroke-width="1" opacity="1" d="M 324.5 252 L 327 253.5 L 325.5 254 L 324.5 252 Z " /><path fill="rgb(100,58,183)" stroke="rgb(100,58,183)" stroke-width="1" opacity="1" d="M 369.5 271 L 370.5 273 L 369.5 271 Z " /><path fill="rgb(100,58,183)" stroke="rgb(100,58,183)" stroke-width="1" opacity="1" d="M 163.5 276 L 164 412.5 L 163 412.5 L 163.5 276 Z " /><path fill="rgb(100,58,183)" stroke="rgb(100,58,183)" stroke-width="1" opacity="1" d="M 275.5 276 L 279 276.5 L 275.5 277 L 275.5 276 Z " /><path fill="rgb(100,58,183)" stroke="rgb(100,58,183)" stroke-width="1" opacity="1" d="M 385.5 286 L 387.5 289 L 385.5 286 Z " /><path fill="rgb(100,58,183)" stroke="rgb(100,58,183)" stroke-width="1" opacity="1" d="M 389.5 291 L 390.5 293 L 389.5 291 Z " /><path fill="rgb(100,58,183)" stroke="rgb(100,58,183)" stroke-width="1" opacity="1" d="M 333.5 292 L 334.5 294 L 333.5 292 Z " /><path fill="rgb(100,58,183)" stroke="rgb(100,58,183)" stroke-width="1" opacity="1" d="M 337.5 295 L 338.5 297 L 337.5 295 Z " /><path fill="rgb(100,58,183)" stroke="rgb(100,58,183)" stroke-width="1" opacity="1" d="M 344.5 302 L 345.5 304 L 344.5 302 Z " /><path fill="rgb(100,58,183)" stroke="rgb(100,58,183)" stroke-width="1" opacity="1" d="M 405.5 334 L 406 336.5 L 405 336.5 L 405.5 334 Z " /><path fill="rgb(100,58,183)" stroke="rgb(100,58,183)" stroke-width="1" opacity="1" d="M 358.5 341 L 359 345.5 L 358 345.5 L 358.5 341 Z " /><path fill="rgb(100,58,183)" stroke="rgb(100,58,183)" stroke-width="1" opacity="1" d="M 405.5 359 L 406 361.5 L 405 361.5 L 405.5 359 Z " /><path fill="rgb(100,58,183)" stroke="rgb(100,58,183)" stroke-width="1" opacity="1" d="M 348.5 379 L 347.5 381 L 348.5 379 Z " /><path fill="rgb(100,58,183)" stroke="rgb(100,58,183)" stroke-width="1" opacity="1" d="M 345.5 383 L 344.5 385 L 345.5 383 Z " /><path fill="rgb(100,58,183)" stroke="rgb(100,58,183)" stroke-width="1" opacity="1" d="M 337.5 391 L 336.5 393 L 337.5 391 Z " /><path fill="rgb(100,58,183)" stroke="rgb(100,58,183)" stroke-width="1" opacity="1" d="M 285.5 411 L 288 411.5 L 285.5 412 L 285.5 411 Z " /><path fill="rgb(100,58,183)" stroke="rgb(100,58,183)" stroke-width="1" opacity="1" d="M 276.5 412 L 280 412.5 L 276.5 413 L 276.5 412 Z " /><path fill="rgb(100,58,183)" stroke="rgb(100,58,183)" stroke-width="1" opacity="1" d="M 382.5 417 L 375.5 425 L 382.5 417 Z " /><path fill="rgb(100,58,183)" stroke="rgb(100,58,183)" stroke-width="1" opacity="1" d="M 370.5 428 L 369.5 430 L 370.5 428 Z " /><path fill="rgb(100,58,183)" stroke="rgb(100,58,183)" stroke-width="1" opacity="1" d="M 307.5 452 L 310 452.5 L 307.5 453 L 307.5 452 Z " /><path fill="rgb(100,58,183)" stroke="rgb(100,58,183)" stroke-width="1" opacity="1" d="M 300.5 453 L 303 453.5 L 300.5 454 L 300.5 453 Z " /><path fill="rgb(100,58,183)" stroke="rgb(100,58,183)" stroke-width="1" opacity="1" d="M 287.5 454 L 293 454.5 L 287.5 455 L 287.5 454 Z " /><path fill="rgb(100,58,183)" stroke="rgb(100,58,183)" stroke-width="1" opacity="1" d="M 115.5 455 L 277 455.5 L 115.5 456 L 115.5 455 Z " /><path fill="rgb(0,0,0)" stroke="rgb(0,0,0)" stroke-width="1" opacity="1" d="M 116 62 L 272.5 62 L 273.5 63 L 286.5 63 L 287.5 64 L 301.5 65 L 323.5 70 L 345.5 79 Q 360.4 87.1 371 99.5 Q 381.6 112.4 387 130.5 L 390 145.5 L 391 170.5 L 387 190.5 L 380 206.5 Q 370.6 222.6 356.5 234 Q 342.5 246 323 252.5 L 324.5 254 L 335.5 256 L 352.5 262 L 368.5 271 L 379 279 L 394 298.5 L 400 311.5 L 405 331.5 L 406 353.5 L 405 354.5 L 405 364.5 L 403 375.5 L 397 394.5 Q 388.6 413.6 373.5 426 Q 361.1 436.6 344.5 443 L 317.5 451 L 297.5 453 L 296.5 454 L 282.5 454 L 281.5 455 L 116 455 L 116 62 Z M 163 104 L 163 234 L 259 234 L 260 233 L 271 233 L 282 231 L 303 224 L 321 213 Q 339 200 344 175 L 343 154 Q 340 141 334 133 Q 319 113 290 107 L 279 106 L 278 105 L 268 105 L 267 104 L 163 104 Z M 163 275 L 163 414 L 273 414 L 274 413 L 283 413 L 314 406 L 335 395 L 350 379 L 356 366 L 359 352 L 359 338 L 358 337 L 357 325 Q 353 309 343 300 Q 334 290 321 285 L 310 281 L 291 277 L 269 276 L 268 275 L 163 275 Z " /><path fill="rgb(140,82,255)" stroke="rgb(140,82,255)" stroke-width="1" opacity="1" d="M 0 0 L 500 0 L 500 500 L 0 500 L 0 0 Z M 115 61 L 115 456 L 277 456 L 278 455 L 303 454 L 304 453 L 321 451 L 344 444 Q 362 437 376 425 Q 391 412 399 392 L 404 375 L 405 363 L 406 362 L 406 335 L 405 334 L 404 323 Q 399 302 388 289 Q 377 275 362 266 L 347 259 L 325 253 Q 344 246 358 234 Q 375 220 385 198 L 390 182 L 391 165 L 392 164 L 391 162 L 390 142 L 385 123 Q 380 108 370 98 Q 356 83 337 74 L 319 68 L 300 64 L 285 63 L 284 62 L 269 62 L 268 61 L 115 61 Z " /><path fill="rgb(140,82,255)" stroke="rgb(140,82,255)" stroke-width="1" opacity="1" d="M 164 105 L 270.5 105 L 271.5 106 L 285.5 107 Q 301.3 109.7 313.5 116 Q 325.9 122.6 334 133.5 Q 339.5 141.5 342 152.5 Q 340.8 157.3 343 158.5 L 343 176.5 Q 337.2 200.7 319.5 213 L 300.5 224 L 272.5 232 L 264.5 232 L 263.5 233 L 164 233 L 164 105 Z " /><path fill="rgb(140,82,255)" stroke="rgb(140,82,255)" stroke-width="1" opacity="1" d="M 164 276 L 274.5 276 L 275.5 277 L 285.5 277 L 286.5 278 L 303.5 280 L 321.5 286 Q 334.7 291.8 344 301.5 Q 360.6 317.9 358 353.5 L 356 363.5 L 351 375.5 L 338.5 391 Q 328.3 399.8 314.5 405 L 301.5 409 L 284.5 412 L 276.5 412 L 275.5 413 L 164 413 L 164 276 Z " /></svg>